<?xml version="1.0" encoding="utf-8"?>
<!-- Generator: Adobe Illustrator 21.1.0, SVG Export Plug-In . SVG Version: 6.00 Build 0)  -->
<svg version="1.1" id="Layer_1" xmlns="http://www.w3.org/2000/svg" xmlns:xlink="http://www.w3.org/1999/xlink" x="0px" y="0px"
	 viewBox="0 0 387.1 124" style="enable-background:new 0 0 387.1 124;" xml:space="preserve">
<style type="text/css">
	.st0{fill:#FFFFFF;}
	.st1{fill:#235382;}
</style>
<g>
	<path class="st0" d="M71.3,98.7c0,1.8,0,6.7,0,9.4c0,1.5-0.5,2.4-1.4,3.2c-6.5,5.3-15,8.6-24.1,8.6c-21.2,0-38.2-17.3-38.2-38.3
		c0-21.1,17-38,38.2-38c9.1,0,17.6,3,24.2,8.5c0.6,0.6,1.2,1.5,1.2,3c0,2.6,0,7.3,0,8.3c0,2.3-0.9,3.3-3.3,0.3
		c-5.3-6.5-13.2-11.1-22.1-11.1c-15.8,0-28.5,13.2-28.5,28.9c0,15.8,12.7,29.2,28.5,29.2c9.5,0,17.9-5.3,23-12.6
		C69.8,97,71.3,96.1,71.3,98.7z"/>
	<path class="st0" d="M171.8,50v63.2c0,2.6-2.1,4.7-4.7,4.7h-0.3c-2.6,0-4.7-2.1-4.7-4.7V50c0-2.6,2.1-4.7,4.7-4.7h0.3
		C169.7,45.3,171.8,47.5,171.8,50z"/>
	<path class="st0" d="M248.9,73.5v39.7c0,2.6-2.1,4.7-4.7,4.7h-0.3c-2.6,0-4.7-2.1-4.7-4.7V74.1c0-15-11.4-21.5-21.8-21.5
		c-13.8,0-20.4,6.2-20.4,18.8c0,1.8,0,41.8,0,41.8c0,2.6-2.1,4.7-4.7,4.7h-0.5c-2.6,0-4.7-2.1-4.7-4.7L187,49.9
		c0-2.6,2.1-4.5,4.7-4.5h0.6c2.3,0,4.5,1.7,4.5,4.5c0,0.5,0,0.2,0,0.5c0,0.8,0.8,0.9,1.2,0.5c5.1-5.8,13.5-7.3,19.4-7.3
		C231.2,43.5,248.9,50,248.9,73.5z"/>
	<path class="st0" d="M298.9,14.9c-1.1,2.6-4.4,3.6-7,2c-2.4-1.4-4.8-2.3-6.4-2.3c-3.6,0-6.7,1.4-8.8,3.8c-1.8,2-2.7,5.8-2.7,7.7
		c0,0,0,16.8,0,17.9c0,1.1,0.6,1.4,1.5,1.4s7.3,0,7.3,0c2.6,0,4.7,2.1,4.7,4.7v0.3c0,2.6-2.1,4.7-4.7,4.7c0,0-6.5,0-7.4,0
		s-1.4,0.5-1.4,1.7s0,56.5,0,56.5c0,2.6-2.1,4.7-4.7,4.7h-0.5c-2.6,0-4.7-2.1-4.7-4.7c0,0,0-54.8,0-56.3s-0.8-1.8-1.5-1.8
		c-0.3,0-0.5,0-0.5,0c-2.6,0-4.7-2.1-4.7-4.7V50c0-2.6,2.1-4.7,4.7-4.7c0,0,0.5,0,0.9,0c1.1,0,1.1-0.6,1.1-1.5c0-0.9,0-17.7,0-17.7
		c0-2.4,1.1-7.9,3.9-12.1c2.6-3.6,5.3-5.5,9.2-7.1c1.7-0.8,4.4-1.4,7.7-1.4c3.6,0,7.3,1.2,10,2.3C298.6,9,300.1,12.2,298.9,14.9z"/>
	<path class="st0" d="M355.2,50v39.5c0,23.5-16.4,30.3-30.1,30.3s-30.3-6.8-30.3-30.3V50c0-2.6,2.1-4.7,4.7-4.7h0.5
		c2.6,0,4.7,2.1,4.7,4.7V89c0,15,10,21.8,20.4,21.8c10.6,0,20.4-6.8,20.4-21.8V50c0-2.6,2.1-4.7,4.7-4.7h0.3
		C353.1,45.3,355.2,47.5,355.2,50z"/>
	<path class="st0" d="M380.1,12v101.2c0,2.6-2.1,4.7-4.7,4.7h-0.3c-2.6,0-4.7-2.1-4.7-4.7V12c0-2.6,2.1-4.7,4.7-4.7h0.3
		C377.9,7.3,380.1,9.5,380.1,12z"/>
	<g>
		<path class="st0" d="M115.4,49.8c16.8,0,30.6,12.8,32.2,29.1c0.1-1,0.2-2.1,0.2-3.2c0-17.8-14.4-32.2-32.3-32.2
			c-17.8,0-32.2,14.4-32.2,32.2c0,1.1,0.1,2.1,0.2,3.2C84.9,62.6,98.7,49.8,115.4,49.8z"/>
		<path class="st1" d="M115.4,114.3c-16.9,0-30.8-13.1-32.1-29.7c-0.1,0.8-0.1,1.7-0.1,2.5c0,17.8,14.4,32.2,32.2,32.2
			c17.9,0,32.3-14.4,32.3-32.2c0-0.9,0-1.7-0.1-2.5C146.4,101.2,132.5,114.3,115.4,114.3z"/>
	</g>
</g>
</svg>
